<?xml version="1.0" standalone="no"?>
<svg xmlns="http://www.w3.org/2000/svg" id="svg-board" class="svg-board" style="width: 100%" viewBox="179 229 442 283.46875" width="442" height="283.46875"><g id="grid"/><g id="indexes"><g><line x1="600" x2="500" y1="350" y2="300" style="stroke:black;stroke-width:1"/><circle r="10" cx="550" cy="325" fill="rgb(255,255,255)" opacity="0%"/><text pointer-events="none" dominant-baseline="middle" text-anchor="middle" x="550" y="325" opacity="0%">1</text></g><g><line x1="500" x2="400" y1="300" y2="250" style="stroke:black;stroke-width:1"/><circle r="10" cx="450" cy="275" fill="rgb(255,255,255)" opacity="0%"/><text pointer-events="none" dominant-baseline="middle" text-anchor="middle" x="450" y="275" opacity="0%">2</text></g><g><line x1="400" x2="300" y1="250" y2="300" style="stroke:black;stroke-width:1"/><circle r="10" cx="350" cy="275" fill="rgb(255,255,255)" opacity="0%"/><text pointer-events="none" dominant-baseline="middle" text-anchor="middle" x="350" y="275" opacity="0%">3</text></g><g><line x1="300" x2="200" y1="300" y2="350" style="stroke:black;stroke-width:1"/><circle r="10" cx="250" cy="325" fill="rgb(255,255,255)" opacity="0%"/><text pointer-events="none" dominant-baseline="middle" text-anchor="middle" x="250" y="325" opacity="0%">4</text></g><g><line x1="200" x2="300" y1="350" y2="400" style="stroke:black;stroke-width:1"/><circle r="10" cx="250" cy="375" fill="rgb(255,255,255)" opacity="0%"/><text pointer-events="none" dominant-baseline="middle" text-anchor="middle" x="250" y="375" opacity="0%">5</text></g><g><line x1="300" x2="400" y1="400" y2="450" style="stroke:black;stroke-width:1"/><circle r="10" cx="350" cy="425" fill="rgb(255,255,255)" opacity="0%"/><text pointer-events="none" dominant-baseline="middle" text-anchor="middle" x="350" y="425" opacity="0%">6</text></g><g><line x1="400" x2="500" y1="450" y2="400" style="stroke:black;stroke-width:1"/><circle r="10" cx="450" cy="425" fill="rgb(255,255,255)" opacity="0%"/><text pointer-events="none" dominant-baseline="middle" text-anchor="middle" x="450" y="425" opacity="0%">7</text></g><g><line x1="500" x2="600" y1="400" y2="350" style="stroke:black;stroke-width:1"/><circle r="10" cx="550" cy="375" fill="rgb(255,255,255)" opacity="0%"/><text pointer-events="none" dominant-baseline="middle" text-anchor="middle" x="550" y="375" opacity="0%">8</text></g><g><line x1="500" x2="400" y1="400" y2="350" style="stroke:black;stroke-width:1"/><circle r="10" cx="450" cy="375" fill="rgb(255,255,255)" opacity="0%"/><text pointer-events="none" dominant-baseline="middle" text-anchor="middle" x="450" y="375" opacity="0%">9</text></g><g><line x1="400" x2="300" y1="350" y2="300" style="stroke:black;stroke-width:1"/><circle r="10" cx="350" cy="325" fill="rgb(255,255,255)" opacity="0%"/><text pointer-events="none" dominant-baseline="middle" text-anchor="middle" x="350" y="325" opacity="0%">10</text></g><g><line x1="400" x2="500" y1="350" y2="300" style="stroke:black;stroke-width:1"/><circle r="10" cx="450" cy="325" fill="rgb(255,255,255)" opacity="0%"/><text pointer-events="none" dominant-baseline="middle" text-anchor="middle" x="450" y="325" opacity="0%">11</text></g><g><line x1="400" x2="300" y1="350" y2="400" style="stroke:black;stroke-width:1"/><circle r="10" cx="350" cy="375" fill="rgb(255,255,255)" opacity="0%"/><text pointer-events="none" dominant-baseline="middle" text-anchor="middle" x="350" y="375" opacity="0%">12</text></g><g><line x1="200" x2="200" y1="350" y2="400" style="stroke:black;stroke-width:1"/><circle r="10" cx="200" cy="375" fill="rgb(255,255,255)" opacity="0%"/><text pointer-events="none" dominant-baseline="middle" text-anchor="middle" x="200" y="375" opacity="0%">13</text></g><g><line x1="300" x2="300" y1="300" y2="350" style="stroke:black;stroke-width:1"/><circle r="10" cx="300" cy="325" fill="rgb(255,255,255)" opacity="0%"/><text pointer-events="none" dominant-baseline="middle" text-anchor="middle" x="300" y="325" opacity="0%">14</text></g><g><line x1="400" x2="400" y1="250" y2="300" style="stroke:black;stroke-width:1"/><circle r="10" cx="400" cy="275" fill="rgb(255,255,255)" opacity="0%"/><text pointer-events="none" dominant-baseline="middle" text-anchor="middle" x="400" y="275" opacity="0%">15</text></g><g><line x1="500" x2="500" y1="300" y2="350" style="stroke:black;stroke-width:1"/><circle r="10" cx="500" cy="325" fill="rgb(255,255,255)" opacity="0%"/><text pointer-events="none" dominant-baseline="middle" text-anchor="middle" x="500" y="325" opacity="0%">16</text></g><g><line x1="400" x2="400" y1="350" y2="400" style="stroke:black;stroke-width:1"/><circle r="10" cx="400" cy="375" fill="rgb(255,255,255)" opacity="0%"/><text pointer-events="none" dominant-baseline="middle" text-anchor="middle" x="400" y="375" opacity="0%">17</text></g><g><line x1="500" x2="500" y1="400" y2="450" style="stroke:black;stroke-width:1"/><circle r="10" cx="500" cy="425" fill="rgb(255,255,255)" opacity="0%"/><text pointer-events="none" dominant-baseline="middle" text-anchor="middle" x="500" y="425" opacity="0%">18</text></g><g><line x1="600" x2="600" y1="350" y2="400" style="stroke:black;stroke-width:1"/><circle r="10" cx="600" cy="375" fill="rgb(255,255,255)" opacity="0%"/><text pointer-events="none" dominant-baseline="middle" text-anchor="middle" x="600" y="375" opacity="0%">19</text></g><g><line x1="400" x2="400" y1="450" y2="500" style="stroke:black;stroke-width:1"/><circle r="10" cx="400" cy="475" fill="rgb(255,255,255)" opacity="0%"/><text pointer-events="none" dominant-baseline="middle" text-anchor="middle" x="400" y="475" opacity="0%">20</text></g><g><line x1="300" x2="300" y1="400" y2="450" style="stroke:black;stroke-width:1"/><circle r="10" cx="300" cy="425" fill="rgb(255,255,255)" opacity="0%"/><text pointer-events="none" dominant-baseline="middle" text-anchor="middle" x="300" y="425" opacity="0%">21</text></g></g><g id="tensors"><g><circle class="tensor" id="tensor" r="20" cx="200" cy="350" stroke="black" stroke-width="1" fill="rgb(255,255,255)"/><text pointer-events="none" dominant-baseline="middle" text-anchor="middle" x="200" y="350" opacity="0%">1</text></g><g><circle class="tensor" id="tensor" r="20" cx="300" cy="300" stroke="black" stroke-width="1" fill="rgb(255,255,255)"/><text pointer-events="none" dominant-baseline="middle" text-anchor="middle" x="300" y="300" opacity="0%">2</text></g><g><circle class="tensor" id="tensor" r="20" cx="400" cy="250" stroke="black" stroke-width="1" fill="rgb(255,255,255)"/><text pointer-events="none" dominant-baseline="middle" text-anchor="middle" x="400" y="250" opacity="0%">3</text></g><g><circle class="tensor" id="tensor" r="20" cx="500" cy="300" stroke="black" stroke-width="1" fill="rgb(255,255,255)"/><text pointer-events="none" dominant-baseline="middle" text-anchor="middle" x="500" y="300" opacity="0%">4</text></g><g><circle class="tensor" id="tensor" r="20" cx="400" cy="350" stroke="black" stroke-width="1" fill="rgb(255,255,255)"/><text pointer-events="none" dominant-baseline="middle" text-anchor="middle" x="400" y="350" opacity="0%">5</text></g><g><circle class="tensor" id="tensor" r="20" cx="300" cy="400" stroke="black" stroke-width="1" fill="rgb(255,255,255)"/><text pointer-events="none" dominant-baseline="middle" text-anchor="middle" x="300" y="400" opacity="0%">6</text></g><g><circle class="tensor" id="tensor" r="20" cx="400" cy="450" stroke="black" stroke-width="1" fill="rgb(255,255,255)"/><text pointer-events="none" dominant-baseline="middle" text-anchor="middle" x="400" y="450" opacity="0%">7</text></g><g><circle class="tensor" id="tensor" r="20" cx="500" cy="400" stroke="black" stroke-width="1" fill="rgb(255,255,255)"/><text pointer-events="none" dominant-baseline="middle" text-anchor="middle" x="500" y="400" opacity="0%">8</text></g><g><circle class="tensor" id="tensor" r="20" cx="600" cy="350" stroke="black" stroke-width="1" fill="rgb(255,255,255)"/><text pointer-events="none" dominant-baseline="middle" text-anchor="middle" x="600" y="350" opacity="0%">9</text></g><g><circle class="point" id="point" r="4" cx="200" cy="400" stroke="rgb(255,255,255)" stroke-width="1" fill="rgb(230,230,230)"/><text pointer-events="none" dominant-baseline="middle" text-anchor="middle" x="200" y="400" opacity="0%" dx="10">10</text></g><g><circle class="point" id="point" r="4" cx="300" cy="350" stroke="rgb(255,255,255)" stroke-width="1" fill="rgb(230,230,230)"/><text pointer-events="none" dominant-baseline="middle" text-anchor="middle" x="300" y="350" opacity="0%" dx="10">11</text></g><g><circle class="point" id="point" r="4" cx="400" cy="300" stroke="rgb(255,255,255)" stroke-width="1" fill="rgb(230,230,230)"/><text pointer-events="none" dominant-baseline="middle" text-anchor="middle" x="400" y="300" opacity="0%" dx="10">12</text></g><g><circle class="point" id="point" r="4" cx="500" cy="350" stroke="rgb(255,255,255)" stroke-width="1" fill="rgb(230,230,230)"/><text pointer-events="none" dominant-baseline="middle" text-anchor="middle" x="500" y="350" opacity="0%" dx="10">13</text></g><g><circle class="point" id="point" r="4" cx="400" cy="400" stroke="rgb(255,255,255)" stroke-width="1" fill="rgb(230,230,230)"/><text pointer-events="none" dominant-baseline="middle" text-anchor="middle" x="400" y="400" opacity="0%" dx="10">14</text></g><g><circle class="point" id="point" r="4" cx="500" cy="450" stroke="rgb(255,255,255)" stroke-width="1" fill="rgb(230,230,230)"/><text pointer-events="none" dominant-baseline="middle" text-anchor="middle" x="500" y="450" opacity="0%" dx="10">15</text></g><g><circle class="point" id="point" r="4" cx="600" cy="400" stroke="rgb(255,255,255)" stroke-width="1" fill="rgb(230,230,230)"/><text pointer-events="none" dominant-baseline="middle" text-anchor="middle" x="600" y="400" opacity="0%" dx="10">16</text></g><g><circle class="point" id="point" r="4" cx="400" cy="500" stroke="rgb(255,255,255)" stroke-width="1" fill="rgb(230,230,230)"/><text pointer-events="none" dominant-baseline="middle" text-anchor="middle" x="400" y="500" opacity="0%" dx="10">17</text></g><g><circle class="point" id="point" r="4" cx="300" cy="450" stroke="rgb(255,255,255)" stroke-width="1" fill="rgb(230,230,230)"/><text pointer-events="none" dominant-baseline="middle" text-anchor="middle" x="300" y="450" opacity="0%" dx="10">18</text></g></g></svg>